<svg width="32" height="32" xmlns="http://www.w3.org/2000/svg">
  <defs>
    <linearGradient id="faviconGradient" x1="0%" y1="0%" x2="100%" y2="100%">
      <stop offset="0%" style="stop-color:#2563eb;stop-opacity:1" />
      <stop offset="100%" style="stop-color:#1d4ed8;stop-opacity:1" />
    </linearGradient>
  </defs>
  
  <rect width="32" height="32" fill="white" rx="6"/>
  
  <!-- Gear/Cog Icon -->
  <path d="M16,8 L17.5,8 L17.5,6.5 L18.5,6.5 L18.5,8 L20,8 L20,9.5 L21.5,9.5 L21.5,11 L20,11 L20,12.5 L21.5,12.5 L21.5,14 L20,14 L20,15.5 L18.5,15.5 L18.5,17 L17.5,17 L17.5,15.5 L16,15.5 L16,17 L14.5,17 L14.5,15.5 L13,15.5 L13,17 L11.5,17 L11.5,15.5 L10,15.5 L10,14 L8.5,14 L8.5,12.5 L10,12.5 L10,11 L8.5,11 L8.5,9.5 L10,9.5 L10,8 L11.5,8 L11.5,6.5 L13,6.5 L13,8 L14.5,8 L14.5,6.5 L16,6.5 Z M15,10 C13.34,10 12,11.34 12,13 C12,14.66 13.34,16 15,16 C16.66,16 18,14.66 18,13 C18,11.34 16.66,10 15,10 Z M15,11.5 C15.83,11.5 16.5,12.17 16.5,13 C16.5,13.83 15.83,14.5 15,14.5 C14.17,14.5 13.5,13.83 13.5,13 C13.5,12.17 14.17,11.5 15,11.5 Z" 
        fill="url(#faviconGradient)" 
        transform="translate(1, 3)"/>
</svg>

