<svg width="200" height="50" xmlns="http://www.w3.org/2000/svg">
  <defs>
    <linearGradient id="logoGradient" x1="0%" y1="0%" x2="100%" y2="0%">
      <stop offset="0%" style="stop-color:#2563eb;stop-opacity:1" />
      <stop offset="100%" style="stop-color:#1d4ed8;stop-opacity:1" />
    </linearGradient>
  </defs>
  
  <!-- Icon -->
  <g transform="translate(10, 10)">
    <!-- Gear/Cog Shape -->
    <path d="M15,7 L17,7 L17,5 L19,5 L19,7 L21,7 L21,9 L23,9 L23,11 L21,11 L21,13 L23,13 L23,15 L21,15 L21,17 L19,17 L19,19 L17,19 L17,17 L15,17 L15,19 L13,19 L13,17 L11,17 L11,19 L9,19 L9,17 L7,17 L7,15 L5,15 L5,13 L7,13 L7,11 L5,11 L5,9 L7,9 L7,7 L9,7 L9,5 L11,5 L11,7 L13,7 L13,5 L15,5 Z M14,9 C11.24,9 9,11.24 9,14 C9,16.76 11.24,19 14,19 C16.76,19 19,16.76 19,14 C19,11.24 16.76,9 14,9 Z M14,11 C15.66,11 17,12.34 17,14 C17,15.66 15.66,17 14,17 C12.34,17 11,15.66 11,14 C11,12.34 12.34,11 14,11 Z" 
          fill="url(#logoGradient)" 
          transform="scale(0.9)"/>
  </g>
  
  <!-- Text -->
  <text x="45" y="33" font-family="Inter, Arial, sans-serif" font-size="24" font-weight="800" fill="url(#logoGradient)">
    REVTECH
  </text>
</svg>

